<svg width="24" height="24" viewBox="0 0 24 24" fill="none" xmlns="http://www.w3.org/2000/svg">
<circle cx="12" cy="12" r="12" fill="#F0A989"/>
<mask id="path-2-inside-1_940_6865" fill="white">
<path d="M12.4115 12.4165H15.8562C15.9153 12.4211 15.9747 12.4133 16.0307 12.3937C16.0868 12.3741 16.1381 12.343 16.1817 12.3024C16.2252 12.2618 16.2599 12.2125 16.2837 12.1578C16.3074 12.103 16.3197 12.0439 16.3197 11.9841C16.3197 11.9243 16.3074 11.8652 16.2837 11.8104C16.2599 11.7557 16.2252 11.7064 16.1817 11.6658C16.1381 11.6252 16.0868 11.5941 16.0307 11.5745C15.9747 11.5549 15.9153 11.5471 15.8562 11.5517L12.4115 11.5517L12.4115 8.0804C12.4031 7.9715 12.3543 7.86978 12.2748 7.79559C12.1952 7.72139 12.0908 7.68018 11.9824 7.68018C11.8741 7.68018 11.7697 7.72139 11.6901 7.79559C11.6106 7.86978 11.5617 7.9715 11.5534 8.0804L11.5534 11.5517L8.10875 11.5517C7.99506 11.5521 7.88612 11.5977 7.80573 11.6787C7.72534 11.7597 7.68003 11.8695 7.67969 11.9841C7.68003 12.0987 7.72534 12.2084 7.80573 12.2895C7.88612 12.3705 7.99506 12.4161 8.10875 12.4165H11.5534L11.5534 15.8878C11.5537 16.0024 11.599 16.1121 11.6794 16.1932C11.7598 16.2742 11.8688 16.3198 11.9824 16.3202C12.0961 16.3198 12.2051 16.2742 12.2855 16.1932C12.3659 16.1121 12.4112 16.0024 12.4115 15.8878L12.4115 12.4165Z"/>
</mask>
<path d="M12.4115 12.4165H15.8562C15.9153 12.4211 15.9747 12.4133 16.0307 12.3937C16.0868 12.3741 16.1381 12.343 16.1817 12.3024C16.2252 12.2618 16.2599 12.2125 16.2837 12.1578C16.3074 12.103 16.3197 12.0439 16.3197 11.9841C16.3197 11.9243 16.3074 11.8652 16.2837 11.8104C16.2599 11.7557 16.2252 11.7064 16.1817 11.6658C16.1381 11.6252 16.0868 11.5941 16.0307 11.5745C15.9747 11.5549 15.9153 11.5471 15.8562 11.5517L12.4115 11.5517L12.4115 8.0804C12.4031 7.9715 12.3543 7.86978 12.2748 7.79559C12.1952 7.72139 12.0908 7.68018 11.9824 7.68018C11.8741 7.68018 11.7697 7.72139 11.6901 7.79559C11.6106 7.86978 11.5617 7.9715 11.5534 8.0804L11.5534 11.5517L8.10875 11.5517C7.99506 11.5521 7.88612 11.5977 7.80573 11.6787C7.72534 11.7597 7.68003 11.8695 7.67969 11.9841C7.68003 12.0987 7.72534 12.2084 7.80573 12.2895C7.88612 12.3705 7.99506 12.4161 8.10875 12.4165H11.5534L11.5534 15.8878C11.5537 16.0024 11.599 16.1121 11.6794 16.1932C11.7598 16.2742 11.8688 16.3198 11.9824 16.3202C12.0961 16.3198 12.2051 16.2742 12.2855 16.1932C12.3659 16.1121 12.4112 16.0024 12.4115 15.8878L12.4115 12.4165Z" fill="white"/>
<path d="M12.4115 12.4165V10.4165H10.4115L10.4115 12.4165H12.4115ZM15.8562 12.4165L16.0116 10.4225L15.934 10.4165H15.8562V12.4165ZM15.8562 11.5517V13.5517H15.934L16.0116 13.5457L15.8562 11.5517ZM12.4115 11.5517L10.4115 11.5517L10.4115 13.5517L12.4115 13.5517L12.4115 11.5517ZM12.4115 8.0804L14.4115 8.0804V8.00374L14.4056 7.9273L12.4115 8.0804ZM11.6901 7.79559L13.0543 9.2581L11.6901 7.79559ZM11.5534 8.0804L9.55926 7.9273L9.55339 8.00374V8.0804L11.5534 8.0804ZM11.5534 11.5517L11.5534 13.5517H13.5534L13.5534 11.5517L11.5534 11.5517ZM8.10875 11.5517L8.10875 9.5517L8.10275 9.55172L8.10875 11.5517ZM7.67969 11.9841L5.67966 11.9782L5.6797 11.99L7.67969 11.9841ZM8.10875 12.4165L8.10275 14.4165H8.10875V12.4165ZM11.5534 12.4165H13.5534V10.4165H11.5534V12.4165ZM11.5534 15.8878H9.55338L9.5534 15.8937L11.5534 15.8878ZM11.9824 16.3202L11.9765 18.3202L11.9884 18.3202L11.9824 16.3202ZM12.4115 15.8878L14.4115 15.8937V15.8878L12.4115 15.8878ZM12.4115 14.4165H15.8562V10.4165H12.4115V14.4165ZM15.7007 14.4104C16.0369 14.4366 16.3746 14.3925 16.6924 14.2811L15.3691 10.5063C15.5749 10.4342 15.7937 10.4055 16.0116 10.4225L15.7007 14.4104ZM16.6924 14.2811C17.0102 14.1697 17.3006 13.9936 17.5459 13.7649L14.8175 10.8398C14.9756 10.6923 15.1633 10.5784 15.3691 10.5063L16.6924 14.2811ZM17.5459 13.7649C17.7911 13.5362 17.9858 13.2597 18.1186 12.9535L14.4488 11.362C14.5341 11.1653 14.6593 10.9874 14.8175 10.8398L17.5459 13.7649ZM18.1186 12.9535C18.2514 12.6472 18.3197 12.3173 18.3197 11.9841L14.3197 11.9841C14.3197 11.7705 14.3635 11.5587 14.4488 11.362L18.1186 12.9535ZM18.3197 11.9841C18.3197 11.6509 18.2514 11.3209 18.1186 11.0147L14.4488 12.6061C14.3635 12.4095 14.3197 12.1977 14.3197 11.9841L18.3197 11.9841ZM18.1186 11.0147C17.9858 10.7085 17.7911 10.4321 17.5459 10.2033L14.8175 13.1283C14.6593 12.9808 14.5341 12.8029 14.4488 12.6061L18.1186 11.0147ZM17.5459 10.2033C17.3007 9.97458 17.0102 9.79854 16.6924 9.68712L15.3691 13.4619C15.1633 13.3897 14.9756 13.2759 14.8175 13.1283L17.5459 10.2033ZM16.6924 9.68712C16.3746 9.5757 16.0369 9.53156 15.7007 9.55777L16.0116 13.5457C15.7937 13.5627 15.5749 13.534 15.3691 13.4619L16.6924 9.68712ZM15.8562 9.55171L12.4115 9.55171L12.4115 13.5517H15.8562V9.55171ZM14.4115 11.5517L14.4115 8.0804L10.4115 8.0804L10.4115 11.5517L14.4115 11.5517ZM14.4056 7.9273C14.3591 7.32068 14.0869 6.7509 13.639 6.33308L10.9106 9.2581C10.6217 8.98867 10.4472 8.62232 10.4174 8.23349L14.4056 7.9273ZM13.639 6.33308C13.1906 5.91485 12.5992 5.68018 11.9824 5.68018L11.9824 9.68018C11.5824 9.68018 11.1998 9.52793 10.9106 9.2581L13.639 6.33308ZM11.9824 5.68018C11.3657 5.68018 10.7743 5.91485 10.3259 6.33308L13.0543 9.2581C12.7651 9.52793 12.3825 9.68018 11.9824 9.68018L11.9824 5.68018ZM10.3259 6.33308C9.87799 6.7509 9.60583 7.32067 9.55926 7.9273L13.5475 8.23349C13.5177 8.62232 13.3432 8.98867 13.0543 9.2581L10.3259 6.33308ZM9.55339 8.0804L9.55339 11.5517L13.5534 11.5517V8.0804L9.55339 8.0804ZM11.5534 9.55171L8.10875 9.55171L8.10875 13.5517L11.5534 13.5517L11.5534 9.55171ZM8.10275 9.55172C7.45572 9.55366 6.83887 9.81368 6.38607 10.27L9.22539 13.0875C8.93337 13.3818 8.53439 13.5504 8.11474 13.5517L8.10275 9.55172ZM6.38607 10.27C5.93378 10.7258 5.68158 11.3402 5.6797 11.9782L9.67968 11.99C9.67847 12.3989 9.5169 12.7937 9.22539 13.0875L6.38607 10.27ZM5.6797 11.99C5.68158 12.628 5.93378 13.2424 6.38607 13.6982L9.22539 10.8807C9.51689 11.1745 9.67847 11.5693 9.67968 11.9782L5.6797 11.99ZM6.38607 13.6982C6.83887 14.1545 7.45572 14.4145 8.10275 14.4165L8.11474 10.4165C8.5344 10.4177 8.93337 10.5864 9.22539 10.8807L6.38607 13.6982ZM8.10875 14.4165H11.5534V10.4165H8.10875V14.4165ZM9.55339 12.4165L9.55339 15.8878L13.5534 15.8878L13.5534 12.4165L9.55339 12.4165ZM9.5534 15.8937C9.55528 16.5317 9.80748 17.1461 10.2598 17.6019L13.0991 14.7844C13.3906 15.0782 13.5522 15.473 13.5534 15.8819L9.5534 15.8937ZM10.2598 17.6019C10.7126 18.0582 11.3294 18.3182 11.9765 18.3202L11.9884 14.3202C12.4081 14.3214 12.8071 14.4901 13.0991 14.7844L10.2598 17.6019ZM11.9884 18.3202C12.6355 18.3182 13.2523 18.0582 13.7051 17.6019L10.8658 14.7844C11.1578 14.4901 11.5568 14.3214 11.9765 14.3202L11.9884 18.3202ZM13.7051 17.6019C14.1574 17.1461 14.4096 16.5317 14.4115 15.8937L10.4115 15.8819C10.4127 15.473 10.5743 15.0782 10.8658 14.7844L13.7051 17.6019ZM14.4115 15.8878V12.4165H10.4115L10.4115 15.8878L14.4115 15.8878Z" fill="#551F0E" mask="url(#path-2-inside-1_940_6865)"/>
</svg>
