<svg width="34" height="34" viewBox="0 0 34 34" fill="none" xmlns="http://www.w3.org/2000/svg">
<path d="M17.0007 0.333252C7.80065 0.333252 0.333984 7.79992 0.333984 16.9999C0.333984 26.1999 7.80065 33.6666 17.0007 33.6666C26.2007 33.6666 33.6673 26.1999 33.6673 16.9999C33.6673 7.79992 26.2007 0.333252 17.0007 0.333252ZM18.5173 27.2499C18.4008 27.3641 18.2534 27.4416 18.0933 27.4728C17.9332 27.504 17.7674 27.4876 17.6166 27.4254C17.4658 27.3633 17.3365 27.2583 17.2448 27.1234C17.1531 26.9885 17.1029 26.8297 17.1007 26.6666V25.3333H17.0007C14.8673 25.3333 12.734 24.5166 11.1007 22.8999C9.96903 21.7655 9.18806 20.3293 8.85112 18.7628C8.51418 17.1963 8.63553 15.5659 9.20065 14.0666C9.51732 13.2166 10.634 12.9999 11.2673 13.6499C11.634 14.0166 11.7173 14.5499 11.5506 15.0166C10.784 17.0833 11.2173 19.4833 12.884 21.1499C14.0507 22.3166 15.584 22.8666 17.1173 22.8333V21.2666C17.1173 20.5166 18.0173 20.1499 18.534 20.6833L21.234 23.3833C21.5673 23.7166 21.5673 24.2333 21.234 24.5666L18.5173 27.2499ZM22.734 20.3666C22.5617 20.1893 22.4435 19.9666 22.3934 19.7245C22.3432 19.4824 22.363 19.2311 22.4507 18.9999C23.2173 16.9333 22.784 14.5333 21.1173 12.8666C19.9507 11.6999 18.4173 11.1333 16.9007 11.1666V12.7333C16.9007 13.4833 16.0007 13.8499 15.484 13.3166L12.7673 10.6333C12.434 10.2999 12.434 9.78325 12.7673 9.44992L15.4673 6.74992C15.5838 6.63572 15.7312 6.55821 15.8913 6.52701C16.0514 6.49581 16.2172 6.51228 16.368 6.57439C16.5189 6.6365 16.6481 6.74151 16.7399 6.87641C16.8316 7.0113 16.8817 7.17015 16.884 7.33325V8.68325C19.0507 8.64992 21.234 9.43325 22.884 11.0999C24.0156 12.2343 24.7966 13.6706 25.1335 15.2371C25.4705 16.8035 25.3491 18.4339 24.784 19.9333C24.4673 20.7999 23.3673 21.0166 22.734 20.3666Z" fill="white"/>
</svg>
