<svg width="30" height="38" viewBox="0 0 30 38" fill="none" xmlns="http://www.w3.org/2000/svg">
<g filter="url(#filter0_d_959_6570)">
<path d="M25.0671 28.6797C25.1517 28.7698 25.2173 28.8759 25.2602 28.9917C25.3031 29.1075 25.3224 29.2308 25.3169 29.3542C25.3115 29.4776 25.2814 29.5987 25.2284 29.7102C25.1755 29.8218 25.1007 29.9217 25.0085 30.004C24.8346 30.1603 24.6096 30.2478 24.3757 30.25C24.2456 30.25 24.117 30.2229 23.998 30.1704C23.8789 30.118 23.7721 30.0413 23.6843 29.9454L19.1843 25L11.9304 32.7579C11.8453 32.8541 11.7407 32.9311 11.6235 32.9836C11.5063 33.0361 11.3792 33.0631 11.2507 33.0625C11.1 33.061 10.9517 33.025 10.8171 32.9571C10.6386 32.8608 10.4957 32.7098 10.4092 32.5263C10.3227 32.3429 10.2973 32.1365 10.3367 31.9375L12.0476 23.3477L5.2976 20.8165C5.15338 20.7605 5.0248 20.6706 4.92279 20.5543C4.82078 20.438 4.74835 20.2988 4.71166 20.1485C4.676 19.9977 4.67878 19.8403 4.71973 19.6909C4.76068 19.5414 4.83849 19.4046 4.94604 19.293L9.52807 14.3829L4.93432 9.32036C4.84979 9.23029 4.78414 9.12421 4.74123 9.00838C4.69833 8.89255 4.67904 8.7693 4.6845 8.6459C4.68996 8.5225 4.72006 8.40144 4.77303 8.28985C4.82599 8.17826 4.90076 8.07839 4.99291 7.99614C5.17631 7.82836 5.41883 7.74029 5.66715 7.75127C5.91547 7.76226 6.14927 7.87141 6.31713 8.05473L25.0671 28.6797ZM21.071 21.4961C21.1575 21.5907 21.2624 21.6665 21.3793 21.7189C21.4962 21.7713 21.6226 21.7992 21.7507 21.8008H21.7624C21.8909 21.8013 22.018 21.7744 22.1352 21.7219C22.2524 21.6693 22.3571 21.5924 22.4421 21.4961L25.0554 18.6954C25.1622 18.5842 25.2396 18.4481 25.2805 18.2995C25.3214 18.1508 25.3246 17.9943 25.2896 17.8441C25.2547 17.694 25.1828 17.5549 25.0806 17.4396C24.9783 17.3242 24.8488 17.2363 24.7038 17.1836L17.9538 14.6524L19.6648 6.05083C19.7002 5.85338 19.6714 5.64977 19.5825 5.46993C19.4936 5.29009 19.3494 5.14349 19.1711 5.05169C18.9927 4.95989 18.7896 4.92771 18.5916 4.9599C18.3936 4.99209 18.2111 5.08694 18.071 5.23052L12.6921 10.9961C12.5299 11.1662 12.4384 11.3916 12.4362 11.6266C12.434 11.8617 12.5213 12.0887 12.6804 12.2618L21.071 21.4961Z" fill="white"/>
</g>
<defs>
<filter id="filter0_d_959_6570" x="-4" y="0" width="38" height="38" filterUnits="userSpaceOnUse" color-interpolation-filters="sRGB">
<feFlood flood-opacity="0" result="BackgroundImageFix"/>
<feColorMatrix in="SourceAlpha" type="matrix" values="0 0 0 0 0 0 0 0 0 0 0 0 0 0 0 0 0 0 127 0" result="hardAlpha"/>
<feOffset/>
<feGaussianBlur stdDeviation="2"/>
<feComposite in2="hardAlpha" operator="out"/>
<feColorMatrix type="matrix" values="0 0 0 0 0 0 0 0 0 0 0 0 0 0 0 0 0 0 0.15 0"/>
<feBlend mode="multiply" in2="BackgroundImageFix" result="effect1_dropShadow_959_6570"/>
<feBlend mode="normal" in="SourceGraphic" in2="effect1_dropShadow_959_6570" result="shape"/>
</filter>
</defs>
</svg>
