<svg width="22" height="30" viewBox="0 0 22 30" fill="none" xmlns="http://www.w3.org/2000/svg">
<path d="M21.0541 14.6954L7.92913 28.7579C7.84406 28.8541 7.73941 28.9311 7.6222 28.9836C7.50498 29.0361 7.3779 29.0631 7.24945 29.0625C7.09875 29.061 6.95041 29.025 6.81585 28.9571C6.63735 28.8608 6.49439 28.7098 6.40792 28.5263C6.32146 28.3429 6.29604 28.1365 6.33538 27.9375L8.04632 19.3477L1.29632 16.8165C1.1521 16.7605 1.02352 16.6706 0.921512 16.5543C0.819501 16.438 0.747073 16.2988 0.710385 16.1485C0.674728 15.9977 0.677502 15.8403 0.718451 15.6909C0.7594 15.5414 0.837214 15.4046 0.94476 15.293L14.0698 1.23052C14.2099 1.08694 14.3923 0.992091 14.5903 0.959903C14.7883 0.927714 14.9914 0.959886 15.1698 1.05169C15.3481 1.14349 15.4924 1.29009 15.5812 1.46993C15.6701 1.64977 15.6989 1.85338 15.6635 2.05083L13.9526 10.6524L20.7026 13.1836C20.8475 13.2363 20.977 13.3242 21.0793 13.4396C21.1816 13.5549 21.2534 13.694 21.2884 13.8441C21.3233 13.9943 21.3202 14.1508 21.2793 14.2995C21.2383 14.4481 21.161 14.5842 21.0541 14.6954Z" fill="white"/>
</svg>
