<svg width="14" height="14" viewBox="0 0 14 14" fill="none" xmlns="http://www.w3.org/2000/svg">
<g opacity="0.3">
<path d="M0.777776 2.33333C0.348222 1.90378 0.348223 1.20733 0.777778 0.777778C1.20733 0.348223 1.90378 0.348223 2.33333 0.777778L13.2222 11.6667C13.6518 12.0962 13.6518 12.7927 13.2222 13.2222C12.7927 13.6518 12.0962 13.6518 11.6667 13.2222L0.777776 2.33333Z" fill="#FFD0A1"/>
<path d="M2.33333 13.2222C1.90378 13.6518 1.20733 13.6518 0.777778 13.2222C0.348223 12.7927 0.348223 12.0962 0.777778 11.6667L11.6667 0.777776C12.0962 0.348222 12.7927 0.348223 13.2222 0.777778C13.6518 1.20733 13.6518 1.90378 13.2222 2.33333L2.33333 13.2222Z" fill="#FFD0A1"/>
</g>
</svg>
