<svg width="34" height="43" viewBox="0 0 34 43" fill="none" xmlns="http://www.w3.org/2000/svg">
<path d="M18.9925 26.0186C18.5057 25.9626 18.0119 26.0337 17.5653 26.2239C17.1187 26.414 16.7366 26.716 16.461 27.0966C16.1854 27.4772 16.0271 27.9216 16.0032 28.3812C15.9793 28.8407 16.0908 29.2975 16.3257 29.7014C17.0577 31.4442 18.2104 33.004 19.6934 34.2583C21.1763 35.5127 22.949 36.4273 24.8723 36.9305C25.2568 37.02 25.6583 37.0231 26.0444 36.9397C26.4304 36.8564 26.7901 36.6889 27.0942 36.4509C27.3983 36.2128 27.6384 35.9109 27.7949 35.5695C27.9514 35.2282 28.02 34.8569 27.995 34.4861C27.995 34.4678 27.995 34.4574 27.995 34.4574C19.5095 34.4587 19.0314 26.3614 18.9925 26.0186Z" fill="#FFD0A1"/>
<path d="M2.53743 7.67854C2.83563 7.91359 3.21734 8.02437 3.59923 7.98662C3.98112 7.94887 4.33209 7.76559 4.57556 7.47699C4.72085 7.30822 8.22683 2.8233 16.9985 2.8233C25.7701 2.8233 29.2761 7.30821 29.4146 7.47045C29.6553 7.76278 30.0055 7.95019 30.3882 7.99141C30.771 8.03263 31.1549 7.92441 31.4555 7.69036C31.7562 7.45632 31.9488 7.11567 31.9912 6.74346C32.0336 6.37125 31.9222 5.99786 31.6815 5.70553C31.5053 5.49227 27.2567 0 16.9999 0C6.74297 0 2.49434 5.49489 2.3181 5.70553C2.07866 5.99563 1.96726 6.36627 2.00837 6.73611C2.04948 7.10596 2.23977 7.4449 2.53743 7.67854Z" fill="#FFD0A1"/>
<path d="M33.8462 13.9233C33.6707 13.579 29.4143 5 17.0001 5C4.63851 5 0.368528 12.5936 0.191626 12.8967C1.68425e-05 13.2273 -0.0503412 13.6195 0.0515914 13.9866C0.153524 14.3538 0.399434 14.666 0.735197 14.8547C1.07096 15.0433 1.46905 15.093 1.84196 14.9926C2.21487 14.8923 2.53201 14.6501 2.72362 14.3195C2.75738 14.2597 6.31301 7.86932 17.0001 7.86932C27.5426 7.86932 31.0969 14.9338 31.2387 15.2064C31.4115 15.5469 31.7146 15.8058 32.0813 15.9262C32.448 16.0467 32.8482 16.0188 33.194 15.8487C33.5398 15.6785 33.8028 15.38 33.9251 15.0189C34.0474 14.6579 34.019 14.2638 33.8462 13.9233Z" fill="#FFD0A1"/>
<path d="M16.4963 10C5.9745 10 0 18.7818 0 24.5553C0 33.6298 2.51041 36.8874 2.8517 37.2354C3.12125 37.5035 3.48558 37.6548 3.8658 37.6563C4.24601 37.6578 4.6115 37.5096 4.88319 37.2436C5.15688 36.9755 5.3147 36.6108 5.32277 36.2278C5.33083 35.8448 5.18849 35.4739 4.92633 35.1945C4.90205 35.1675 2.90966 32.4223 2.90966 24.5606C2.90966 20.7511 7.25738 12.9164 16.495 12.9164C25.0433 12.9164 30.0802 19.0731 30.0802 27.4717C30.1334 27.8666 30.0948 28.2682 29.9673 28.6457C29.8398 29.0231 29.6268 29.366 29.3452 29.6477C29.0635 29.9294 28.7206 30.1423 28.3432 30.2698C27.9657 30.3973 27.564 30.4359 27.1692 30.3827C26.2997 30.4839 25.4196 30.3287 24.6372 29.9363C23.9003 29.3082 23.4201 28.431 23.2882 27.4717C23.2882 22.5858 20.2126 20.4355 16.8632 20.4355C15.9909 20.4293 15.1269 20.604 14.3255 20.9483C13.5241 21.2926 12.8026 21.7991 12.2067 22.436C10.8175 24.0266 10.0931 26.0902 10.1832 28.2001C10.1832 38.8231 21.3673 42.7581 21.8435 42.9214C22.2088 43.0466 22.6088 43.0215 22.9557 42.8517C23.3025 42.682 23.5678 42.3815 23.693 42.0162C23.8182 41.6509 23.7931 41.2509 23.6234 40.904C23.4537 40.5572 23.1531 40.292 22.7878 40.1668C22.3926 40.0319 13.0983 36.7243 13.0983 28.2015C13.0135 26.8322 13.4528 25.4817 14.3271 24.4244C14.6525 24.0796 15.0456 23.8057 15.4818 23.62C15.918 23.4343 16.3878 23.3407 16.8619 23.3452C18.8489 23.3452 20.3691 24.4434 20.3691 27.4704C20.3691 29.1944 22.0256 31.3095 23.2802 32.3266C24.416 33.104 25.7931 33.4481 27.1611 33.2965C27.9414 33.3583 28.7257 33.25 29.4601 32.9792C30.1945 32.7085 30.8614 32.2817 31.4148 31.7282C31.9683 31.1748 32.3952 30.5079 32.6659 29.7735C32.9367 29.0391 33.0449 28.2546 32.9831 27.4744C32.9926 17.4557 26.6539 10 16.4963 10Z" fill="#FFD0A1"/>
<path d="M7.95887 27.7681C7.95887 24.963 8.37517 17.943 16.7666 17.943C18.401 17.8784 20.0215 18.2692 21.4483 19.0722C22.8751 19.8751 24.0527 21.0589 24.8506 22.4923C25.5743 23.8136 25.9892 25.2829 26.0641 26.7889C26.0641 27.1797 26.2187 27.5545 26.494 27.8308C26.7693 28.1072 27.1427 28.2625 27.5321 28.2625C27.9214 28.2625 28.2947 28.1072 28.57 27.8308C28.8453 27.5545 29 27.1797 29 26.7889C29 26.6755 28.8639 15 16.7666 15C5.12363 15 5.02293 25.7208 5.02293 27.7721C5.02293 27.9319 4.24066 34.9654 11.8144 42.5684C12.0897 42.8447 12.4631 43 12.8525 43C13.2418 43 13.6152 42.8447 13.8905 42.5684C14.1658 42.292 14.3205 41.9173 14.3205 41.5264C14.3205 41.1356 14.1658 40.7606 13.8905 40.4843C7.22827 33.7922 7.95887 27.9703 7.95887 27.7681Z" fill="#FFD0A1"/>
</svg>
